<svg xmlns="http://www.w3.org/2000/svg" version="1.1" xmlns:xlink="http://www.w3.org/1999/xlink" width="1000" height="1000"><g clip-path="url(#SvgjsClipPath2126)"><rect width="1000" height="1000" fill="#a4edf7"></rect><g transform="matrix(9.930032001514132,0,0,9.930032001514132,-5.684341886080802e-14,145.4959162246892)"><svg xmlns="http://www.w3.org/2000/svg" version="1.1" width="100.70461" height="71.400391" viewBox="0 0 839.14586 594.98907" id="svg21" sodipodi:docname="logo.svg" inkscape:version="1.4.2 (f4327f4, 2025-05-13)" xmlns:inkscape="http://www.inkscape.org/namespaces/inkscape" xmlns:sodipodi="http://sodipodi.sourceforge.net/DTD/sodipodi-0.dtd" xmlns:svg="http://www.w3.org/2000/svg"><defs id="defs21"><clipPath id="SvgjsClipPath2126"><rect width="1000" height="1000" x="0" y="0" rx="300" ry="300"></rect></clipPath></defs><sodipodi:namedview id="namedview21" pagecolor="#ffffff" bordercolor="#000000" borderopacity="0.25" inkscape:showpageshadow="2" inkscape:pageopacity="0.0" inkscape:pagecheckerboard="0" inkscape:deskcolor="#d1d1d1" inkscape:zoom="3.4156853" inkscape:cx="75.533891" inkscape:cy="64.847895" inkscape:window-width="1920" inkscape:window-height="1017" inkscape:window-x="-8" inkscape:window-y="-8" inkscape:window-maximized="1" inkscape:current-layer="svg21"></sodipodi:namedview><g stroke-linecap="round" id="Layer_1" transform="translate(-211.48629,-145.75632)">
    <path d="m 307,734.52 c -2.68,1.22 -21.57,-0.32 -29.44,-0.01 -3.05,0.13 -18.13,2.2 -22.79,2.06 0,0 -3.73,-9.17 -3.73,-9.17 -6.34,-13.73 -24.78,-52.15 -25.11,-52.94 -2.92,-6.98 -7.46,-22.93 -8.44,-28.62 -1.18,-6.95 -2.18,-18.51 -1.68,-20.2 0.54,-1.72 2.66,-4.72 3.88,-5.57 1.52,-0.98 7.48,-0.75 10.58,0 5.01,1.24 17.91,8.4 23.83,13.29 6.63,5.6 13.25,12.44 18.48,20.01 5.48,8.29 11.8,19.41 16.02,28.1 4.87,10.39 20.45,46.29 20.75,49.35 0.08,1.28 -1.12,3.08 -2.35,3.7 z" fill="none" stroke="#000000" stroke-width="46" stroke-opacity="1" stroke-linejoin="round" id="path1" style="stroke-width:8.33313;stroke-dasharray:none"></path>
    <path d="m 356.93,677.52 c 2.46,6.88 6.32,17.97 9.99,27.88 2.85,7.5 8.31,21.85 10.93,28.7 0.27,0.71 0.54,1.41 0.81,2.12 -0.65,-0.11 -1.3,-0.22 -1.96,-0.33 -3.85,-0.63 -8.35,-0.7 -13.58,-0.18 -6.26,0.61 -17.77,0.28 -23.78,-0.1 0.54,-4.17 0.33,-7.44 -1.22,-11.25 -2.84,-7.07 -28.9,-64.98 -35.17,-85.3 -1.92,-6.28 -3.26,-18.7 -2.85,-25.69 0.41,-6.75 2.41,-15.32 3.63,-18.7 0.61,-1.59 2.09,-3.73 3.13,-4.23 1.21,-0.52 3.12,0.11 4.42,1.29 4.88,4.75 12.68,19.04 16,25.15 22,42.79 29.3,59.83 29.65,60.64 z" fill="none" stroke="#000000" stroke-width="46" stroke-opacity="1" stroke-linejoin="round" id="path2" style="stroke-width:8.33313;stroke-dasharray:none"></path>
    <path d="m 1022.82,726.27 c 0.85,0 4.11,-0.12 4.44,-0.81 0.41,-0.85 0.5,-3.41 1.76,-4.9 3.6,-4.3 12.97,-19.35 16.59,-25.29 -4.02,1.29 -21.46,3.17 -27.23,2.42 -5.59,-0.78 -14.62,-5.18 -15.5,-5.61 l -3.57,-1.46 c -2.73,-0.66 -8.82,-2.13 -12.86,-3.28 -3.65,-1.08 -5.8,-3.68 -6.03,-4.77 3.28,-5.15 6.68,-9.86 9.9,-12.49 0.53,-0.44 7.66,-5.92 8.76,-7.41 l 2.09,-2.58 c 2.87,-2.54 5.13,-5.21 7.03,-8.94 1.6,-3.17 5.36,-11.91 5.8,-13.12 1.31,-3.65 1.45,-8.17 1.23,-11.55 -0.35,-5.13 -0.95,-11.11 -1.44,-13.42 -0.97,-4.3 -4.15,-10.68 -6.59,-14.06 -0.69,-0.96 -3.95,-5.2 -4.15,-5.31 -0.16,-0.07 -0.27,0.6 -0.25,0.43 0.23,-1.03 0.35,-1.54 0.36,-1.54 0.11,0.01 1.76,3.69 1.86,3.36 0.1,-0.34 -0.42,-3.87 -0.89,-6.61 l -3.45,-2.33 -2.89,-1.72 -7.48,-4.92 c -0.4,-1.38 -4.03,-3.3 -5.59,-4.11 -0.67,-0.36 -19.91,-11.42 -26.65,-16.37 -6.21,-4.59 -17.02,-14.47 -21.84,-20.13 -3.31,-3.92 -10.7,-14.39 -12.08,-16.33 4.09,2.4 7.22,3.89 10.54,4.63 6.74,1.42 19.67,1.09 29.22,-0.43 8.16,-1.33 21.44,-4.83 27.84,-7.08 6.27,-2.22 19.59,-8.11 25.18,-11.59 3.05,-1.92 8.57,-6.11 11.13,-8.52 2.79,-2.66 7.41,-7.98 9.32,-10.86 2.73,-4.18 8.41,-16.83 8.96,-19.26 0.34,-1.55 -0.38,-8.01 -0.56,-9.53 -1.81,-0.42 -4.26,-1.05 -4.91,-1.33 -0.52,-0.22 -1.9,-0.71 -3.89,-0.37 -4.16,0.74 -10.08,1.32 -11.43,1.7 -7.38,2.09 -25.1,7.02 -31.12,7.43 -3.21,0.2 -12.19,-0.75 -13.07,-0.93 -3.31,-0.72 -9.05,-3.44 -12.98,-6.69 -0.79,-0.66 -8.19,-8.03 -9.17,-9.12 -2.8,-3.18 -6.85,-10.84 -8.73,-16.56 -3.33,-10.3 -6.32,-38.82 -10.67,-74.49 -0.66,-5.53 -1.56,-10.01 -3.78,-15.55 -2.44,-6 -20.07,-37.29 -22.27,-39.71 -2.91,-3.11 -16.96,-12.13 -23.36,-16.13 -1.14,-0.73 -3.22,-0.84 -9.36,-3.21 -4.65,-1.85 -6.89,-2.81 -7.71,-3.18 l -5.8,-3.43 c -9.59,-5.7 -19.02,-12.49 -23.73,-17.64 -1.98,-2.19 -5.48,-6.73 -6.95,-11.11 -0.87,-2.65 -7.04,-28.67 -7.48,-31.11 l -11.83,-16.11 -0.92,-1.59 c -2.99,-3.86 -16.1,-15.34 -22.58,-19.21 -5.41,-3.2 -23.22,-11.65 -26.68,-13.03 -7.55,-2.97 -16.13,-5.56 -26.29,-8.18 -6.08,-1.47 -23.72,-4.9 -30.36,-6.07 -7.63,-1.18 -23.3,-3.35 -31.49,-4.16 -13.95,-1.12 -48.16,-1.16 -63.98,-1.01 -8.72,0.31 -24.42,1.03 -31.4,1.44 -8.65,0.62 -20.46,3.38 -27.4,6.38 -4.41,1.93 -9.65,4.75 -13.32,7.13 -3.32,2.19 -9.06,6.85 -10.84,9.01 -2.17,2.71 -3.42,7.08 -4.4,11.92 -0.26,-1.68 -0.78,-4.06 -1.23,-4.83 -0.93,-1.49 -7.48,-2.8 -11.78,-2.9 -3.28,-0.05 -10.02,0.66 -13.25,1.55 -6.27,1.78 -18.86,7.77 -24.11,11.15 -3.06,1.98 -7.72,5.58 -9.84,7.85 -2.16,2.36 -5.6,7.17 -6.86,9.67 -1.66,3.39 -6.77,24.39 -7.24,26.02 -1.01,3.54 -3.49,9.99 -4.95,12.89 -2.88,5.62 -12.01,16.66 -18.56,22.92 -6.02,5.64 -18.22,17.18 -20.39,20.68 -3.79,6.25 -8.54,17.09 -10.26,25.18 -1.45,6.91 -2.95,22.28 -2.84,29.69 0.26,15.56 4.08,29.59 4.37,30.67 0,0 -0.18,11.11 -0.22,11.46 -0.07,0.62 -1.13,7.32 -2.12,10.99 -7.84,28.66 -8.85,32.67 -8.81,36.78 -0.52,4.17 -3.48,23.68 -4.08,26.41 -0.35,1.57 -1.46,3.14 -2.32,8.25 -0.87,5.92 -0.73,21.4 -0.09,32.36 0.59,8.17 3,23.11 4.56,29.54 1.5,6.15 8.75,23.56 9.66,26.84 0.8,2.97 1.58,9.88 1.11,13.57 -0.76,5.67 -5.1,21.13 -7.23,28.51 -3.79,14.27 -7.36,40.6 -7.63,46.95 -0.12,4.59 0.34,12.1 1.55,15 1.73,4.08 8.26,11.83 15.66,18.67 3.86,3.54 9.14,7.63 12.23,9.12 3.09,1.44 9.58,2.05 13.28,1.55 2.77,-0.4 9.93,-2.09 12.48,-2.68 -1.64,-0.21 -4.94,-0.44 -5.46,-0.81 -1.28,-0.94 -1.95,-4.17 -1.48,-6.6 0.59,-2.73 1.47,-5.17 2.42,-6.6 1.84,-2.64 6.55,-6.15 10.39,-8.1 4.02,-1.99 9.56,-4 12.48,-4.1 3.46,-0.07 10.09,0.58 13.75,2.16 1.71,0.76 9.12,5.15 10.92,6.73 2.35,2.14 5.83,8.06 6.64,11.76 0.34,1.7 0.52,5.17 0.14,6.28 -0.97,2.69 -6.08,8.35 -8.55,11.09 -8.53,9 -14.95,14.95 -16.75,16.03 -2.15,1.25 -8.77,1.71 -13.11,1.18 -12.49,-1.71 -19.56,-1.69 -21.4,-1.08 -2.27,0.83 -4.28,3.26 -4.46,5.5 -0.04,0.65 1.26,4.46 1.72,5.42 0.72,1.42 2.75,3.57 4.09,4.34 2.85,1.57 7.62,2.1 9.83,1.4 4.65,0.42 24.64,-0.91 31.43,-1.16 6.57,-0.11 42.77,-0.34 57.39,-0.63 13.49,0.19 42.19,0.58 46.56,1.14 1.75,0.16 3.75,-0.69 4.48,-2.14 0.58,-1.19 8.93067,-81.68075 8.74067,-83.17075 -1.02725,-7.26682 -15.92036,-18.39882 -29.97499,-26.86358 -13.65481,-7.22308 -28.86735,-26.32418 -29.54518,-28.43592 -1.86,-4.54 -0.90816,-10.89486 -0.66816,-13.76486 15.24936,12.91186 50.30749,35.73544 53.46749,37.16544 6.79,3.03 15.08017,8.17967 25.23017,10.58967 8.16,1.8 23.93,5.19 31.54,6.8 7.51,1.47 19.46,3.72 26.12,4.13 7.89,0.34 21.77,1.03 22.82,1.06 15.11698,-1.39836 5.57733,11.53132 -32.89025,8.23 -3.97,-0.35 -21.00033,-1.6505 -25.71033,-2.4605 -1.84,-0.28 -15.0242,-2.02411 -16.9142,-1.69411 -5.38247,8.30066 -4.32869,17.35655 -5.06522,27.10461 -0.58,7.69 -1.81,23.38 -2.45,31.39 -1.73,16.23 -5.02,29.26 -5.24,30.12 30.3,-0.47 93.25,-1.75 125.91,-2.56 9.02,-0.01 44.11,0.9 60.23,1.36 11.23,0.16 43.93,-1.29 57.46,-0.04 5.48,0.56 10.63,0.75 13.82,-0.05 0.82,-0.2 4.19,-1.41 5.2,-1.77 -7.12,-7.85 -28.58,-36.4 -36.78,-47.8 -5.89,-8.52 -12.1,-20.14 -14.96,-26.45 -3.69,-8.5 -7.22,-18.68 -7.71,-24.76 -0.18,-2.37 -0.19,-10.33 -0.14,-13.85 -0.01,-1.97 0.57,-2.63 2.42,-3.2 6.29,5.65 11.18,11.24 16.91,20.52 3.47,5.81 11.49,20 15.71,27.55 4.3,7.29 14.92,23.83 18.61,28.87 5.94,8.06 24.91,29.32 27.89,31.95 l 2.7,3.08 c 0.86,1.45 2.75,3.42 4.15,3.98 1.43,0.57 60.11,-0.61 91.5,-0.84 26.3,-0.55 40.15,-1.47 40.44,-1.46 z" fill="none" stroke="#000000" stroke-width="46" stroke-opacity="1" stroke-linejoin="round" id="path3" style="stroke-width:8.33313;stroke-dasharray:none" sodipodi:nodetypes="ccccccccccccccccccccccccccccccccccccccccccccccccccccccccccccccccccccccccccccccccccccccccccccccccccccccccccccccccccccccccccccccccccccccccccccccccccccccc"></path>
  </g><path style="fill:#000000;stroke:#000000;stroke-width:3.97491;stroke-miterlimit:3.9;stroke-dasharray:none" d="m 132.99729,583.18445 c 0,-1.23303 -7.24052,-19.29696 -16.09005,-40.14209 C 98.030771,498.57866 95.158901,490.44 93.855111,477.71419 c -1.25802,-12.27899 0.94527,-32.8206 4.02109,-30.2679 6.581889,5.46249 39.094439,75.24546 48.988239,102.98661 3.54115,9.92898 7.83575,21.55745 9.54358,25.84103 1.70783,4.28358 3.10514,8.09524 3.10514,8.47034 0,0.37508 -5.96607,0.68199 -13.25794,0.68199 -10.88737,0 -13.25793,-0.40083 -13.25793,-2.24185 z" id="path22" sodipodi:nodetypes="ssssssssss"></path><path style="fill:#000000;stroke:#000000;stroke-width:3.97491;stroke-miterlimit:3.9;stroke-dasharray:none" d="m 31.797931,553.53659 c -16.19598,-34.70424 -21.26137,-50.00186 -21.59323,-65.2123 l -0.2115804,-9.69804 4.2721604,0.45874 c 8.03356,0.86254 21.99846,9.30117 31.8698,19.25809 11.62724,11.72802 20.77622,27.03569 33.94938,56.80258 14.20664,32.10217 36.915699,28.80756 -2.0132,28.80756 -7.63272,0 -17.78656,0.39907 -22.5641,0.88686 l -8.68644,0.88686 z" id="path23" sodipodi:nodetypes="sscssssscs"></path><path style="display:inline;fill:#000000;stroke:#000000;stroke-width:3.33325;stroke-miterlimit:3.9;stroke-dasharray:none" d="m 220.66819,582.10904 c -1.22698,-0.68665 -2.23087,-2.19079 -2.23087,-3.34253 0,-1.71229 3.23957,-2.03465 17.7697,-1.76818 l 17.7697,0.32591 13.90203,-14.27133 c 13.53718,-13.89678 13.90204,-14.45211 13.90204,-21.15945 0,-15.16904 -12.97465,-27.01009 -31.01926,-28.3091 -8.28329,-0.59632 -10.84418,-0.13483 -17.97752,3.23982 -10.00966,4.73532 -12.45075,11.45404 -13.69586,19.24051 -0.88794,5.55287 -1.75359,10.65775 -7.16159,10.65775 -4.57675,0 -9.68917,-6.83897 -16.75236,-12.71701 -11.83582,-9.84988 -17.98379,-19.36113 -17.98379,-27.82197 0,-10.93721 4.2885,-36.26516 9.65415,-57.01743 6.46629,-25.00914 6.44333,-30.50638 -0.20391,-48.80683 -2.90442,-7.99616 -6.1744,-19.17876 -7.26662,-24.85021 -2.98709,-15.51082 -4.14396,-41.48867 -2.23045,-50.08554 0.9017,-4.05104 2.88339,-15.32028 4.40377,-25.04277 1.52038,-9.72249 4.76082,-25.30056 7.20097,-34.61794 6.28009,-23.9795 6.8028,-30.01983 3.84575,-44.44065 -1.9179,-9.35316 -2.32424,-16.48033 -1.70759,-29.95111 1.23537,-26.98685 6.79253,-40.32581 23.32104,-55.97795 22.50491,-21.31166 28.20705,-30.00641 34.4001,-52.454013 2.09942,-7.60962 4.52968,-15.64199 5.40058,-17.8497 4.47695,-11.34891 29.91864,-26.35537 46.46914,-27.40923 8.74487,-0.55682 9.28895,-0.39466 10.95666,3.26556 1.15172,2.52775 2.91901,3.85149 5.14203,3.85149 2.6805,0 3.75885,-1.24057 5.1687,-5.94623 3.09988,-10.34646 17.20079,-20.43834 35.9811,-25.7513 13.58455,-3.8430755 94.63039,-4.8968915 120.45879,-1.56629 68.37921,8.81757 106.88247,25.31167 128.37256,54.99247 5.59257,7.7241 7.25609,11.7028 10.32696,24.6993 4.24574,17.968643 6.21211,22.265093 13.54741,29.600383 7.62342,7.62343 27.6408,20.26475 38.03901,24.0223 4.86125,1.75668 13.47891,6.35114 19.15036,10.20991 11.04141,7.5124 15.93758,14.22253 28.64637,39.25951 5.85936,11.54324 6.07217,12.50958 10.38103,47.13933 4.73047,38.01806 6.32701,46.58013 10.51842,56.40628 3.37683,7.91648 16.30219,21.73185 24.09934,25.75882 8.80487,4.54743 25.49481,4.2187 43.66554,-0.86006 17.83341,-4.98445 24.84391,-5.2294 24.84391,-0.868 0,5.601 -10.5125,23.34111 -17.52608,29.57567 -9.2307,8.2054 -30.26928,18.13043 -47.8477,22.57233 -17.46141,4.41235 -38.19409,5.04328 -45.28195,1.37804 -5.3899,-2.78722 -10.67534,-2.27601 -11.31749,1.09463 -0.6919,3.63172 13.17908,21.9329 24.05705,31.74054 5.18588,4.67561 15.25197,12.10845 22.36905,16.51741 25.85714,16.01819 32.82705,21.06394 32.82705,23.76452 0,1.4648 0.67582,3.08075 1.50113,3.591 3.6875,2.27898 9.04495,16.20141 9.82719,25.53772 0.73081,8.72367 0.33999,10.85067 -3.56475,19.37465 -2.84577,6.2129 -7.09917,12.16153 -12.11296,16.94069 -11.80789,11.25518 -13.28702,12.87724 -16.56769,18.16825 -3.04201,4.90624 -3.0421,4.91358 -0.11917,8.83862 1.97454,2.65134 5.74945,4.73377 11.61256,6.40606 4.7778,1.36278 13.60609,4.24232 19.61837,6.39903 9.08003,3.2572 12.30495,3.74966 19.04221,2.90788 l 8.11089,-1.01339 -2.6936,4.18955 c -7.29,11.3385 -10.63817,15.06817 -14.16242,15.77624 -2.09786,0.42149 -31.32008,1.23725 -64.93828,1.81279 l -61.12392,1.04646 -14.29126,-16.06161 c -16.85865,-18.94726 -26.88738,-33.24827 -44.18931,-63.01446 -12.42795,-21.38096 -18.48302,-29.73778 -25.62191,-35.36164 -2.86715,-2.25868 -4.16952,-2.4674 -7.09074,-1.1364 -3.38322,1.54149 -3.57848,2.31794 -3.57848,14.2299 0,24.90641 11.49865,47.62812 46.73196,92.34375 8.23166,10.44705 9.18488,12.35223 5.46621,10.92525 -3.43365,-1.31762 -176.11335,-1.43132 -213.0255,-0.14025 l -31.93072,1.11681 1.32881,-5.72745 c 0.73081,-3.15008 2.67707,-20.8825 4.32493,-39.40534 1.64787,-18.52286 3.35998,-34.26665 3.8047,-34.98622 1.22939,-1.9892 6.66765,-1.58714 20.09629,1.48568 15.53397,3.55457 38.0687,5.11755 47.51964,3.29591 8.01093,-1.54409 12.56641,-5.66119 12.56641,-11.35714 0,-4.95257 -3.16278,-6.01003 -20.82208,-6.96189 -8.97925,-0.48399 -26.89947,-3.14734 -41.98347,-6.23965 -50.30877,-10.31364 -66.15882,-17.3527 -84.94672,-37.72513 -9.42305,-10.21776 -12.88898,-13.04199 -16.00534,-13.04199 -7.45457,0 -7.23268,7.5036 0.50957,20.39345 5.2766,8.78486 12.88156,18.53636 33.65173,30.61644 8.52741,4.95962 17.2566,9.64686 19.3982,11.907 l 3.89381,4.10934 -6.40817,41.76032 c -3.52447,22.96817 -6.61905,41.95156 -6.87682,42.18531 -1.21478,1.10157 -141.38541,1.47984 -143.33854,0.38682 z m 201.6484,-119.61845 c 6.87256,-9.32288 11.86813,-20.95981 11.33454,-26.40323 -0.44458,-4.53527 -0.8882,-4.83826 -10.7754,-7.3594 -12.02114,-3.06529 -21.50823,-3.43233 -24.01159,-0.92897 -2.6957,2.69569 -2.11488,12.89178 1.33297,23.40002 5.08576,15.5002 6.53495,17.55227 12.39549,17.55227 4.30432,0 5.83554,-0.98586 9.72399,-6.26069 z m 29.35757,-37.80444 c 23.5724,-3.52924 85.35124,-16.55408 95.61487,-72.22975 1.55483,-8.43428 -4.2226,-16.35102 -6.31024,-20.0704 -1.50134,-2.67485 -3.46554,-4.01636 -5.88059,-4.01636 -2.91465,0 -3.88136,1.01179 -4.92613,5.15586 -1.0676,4.23464 -4.56429,7.75292 -19.56983,19.69072 -22.95354,18.26091 -37.09492,23.49568 -60.37169,33.06622 -19.59966,9.80688 -38.8883,12.05965 -60.18174,12.05965 -12.57061,0 4.07804,34.96 61.62535,26.34406 z m -84.89434,-42.33608 c 5.19913,-7.73289 9.15044,-11.16605 5.47639,-12.57591 -5.30413,-2.03539 -9.7763,-0.7629 -14.34536,4.08168 -3.53305,3.74611 -6.69411,5.37203 -12.79074,6.57897 -16.96824,3.35918 -28.70361,3.63931 -40.74218,0.97259 -14.24241,-3.15492 -20.98007,-6.49102 -28.69921,-14.21017 -8.81078,-8.81077 -12.2445,-17.40134 -12.28125,-30.72552 -0.0267,-9.8042 0.61065,-12.40176 5.66349,-23.06825 6.8479,-14.45595 13.21691,-21.01672 26.03976,-26.82379 13.69249,-6.20092 18.14317,-6.6786 36.24852,-3.8905 8.80113,1.35531 18.31828,2.24441 21.14924,1.97577 4.58173,-0.43474 5.14717,-0.95642 5.14717,-4.74876 0,-2.84127 -1.22667,-5.16091 -3.68276,-6.9641 -5.67092,-4.1634 -25.39972,-6.97187 -43.47983,-6.27986 -13.97825,0.53499 -19.43915,6.55071 -28.09235,10.95676 -5.26634,2.6815 -11.25097,-0.28633 -12.55371,0.85943 -2.13651,1.87899 -2.60578,0.88837 -4.78874,-10.10887 -1.43426,-7.22554 -2.41916,-19.3929 -2.41781,-29.86925 l 0.002,-17.67724 4.26485,9.01499 c 6.29523,13.30682 13.09279,17.82505 33.17192,22.04883 8.95326,1.88337 10.52621,1.88638 12.38888,0.0233 3.26213,-3.26213 1.3131,-5.99785 -9.60759,-13.48558 -5.51196,-3.77926 -8.69595,-6.49991 -7.07554,-6.0459 1.62041,0.45399 7.57214,2.18274 13.22605,3.84162 12.20145,3.57992 17.43679,3.79709 19.90291,0.82565 5.05372,-6.08936 -2.51696,-13.65351 -30.18275,-30.15668 -9.72249,-5.79964 -20.07877,-12.87842 -23.01395,-15.73062 -4.06948,-3.95441 -6.34314,-5.07082 -9.57518,-4.70159 -3.6516,0.41716 -4.22236,1.09613 -4.12215,4.90353 0.0642,2.43061 0.63357,6.24436 1.2657,8.47499 1.0448,3.68673 0.74356,4.13686 -3.31094,4.94775 -3.56743,0.71349 -5.3332,2.55562 -8.82083,9.20225 -6.28892,11.98525 -8.21353,21.83981 -6.99455,35.81398 1.28243,14.70158 4.32812,26.58732 8.91665,34.7971 l 3.54403,6.34095 -0.91027,7.48724 c -2.54878,20.96454 -10.98144,44.32747 -2.94161,60.74891 8.12005,16.58528 23.87791,29.70748 42.75707,35.61059 8.35435,2.61223 33.3266,3.77404 45.88799,1.11324 0,0 19.30705,-4.53038 25.37637,-13.55756 z m 208.16122,23.40272 c 5.41373,-3.43972 1.08714,-24.22149 -2.39269,-32.84655 -3.04408,-7.54499 -5.41349,-16.56518 -8.75421,-16.61574 -4.83029,-0.0733 -17.16115,20.57777 -19.47457,28.29923 -1.78724,5.96529 -1.69569,6.4955 1.70961,9.90081 3.26081,3.26081 22.06507,12.34537 25.64075,12.38735 0.81023,0.009 2.2822,-0.49674 3.27111,-1.1251 z M 421.51307,359.44391 c 0,4.57829 1.14236,-20.82579 -1.45225,-23.95208 -2.85358,-3.43838 -12.66099,-3.08862 -16.33204,0.5824 -2.15957,2.15957 -2.94621,4.91034 -2.94621,10.30249 0,6.93318 0.35157,7.61098 6.11344,11.78483 7.22799,5.23593 14.61706,-3.70304 14.61706,1.28232 z m -86.01467,-6.58459 c 17.7007,-10.2441 26.38743,-13.85618 32.87049,-13.66805 3.06401,0.0889 5.94588,-0.97487 7.87959,-2.90859 3.0433,-3.04329 3.08594,-4.3212 0.49274,-14.7653 -0.80682,-3.24961 10.06837,-11.22721 12.40803,-13.09533 13.88209,-11.08422 27.29786,-9.9805 31.61194,-13.00242 4.60412,-3.22509 17.48822,-3.78704 14.36754,-11.2559 -1.93801,-4.6383 -2.61588,-4.86743 -8.62266,-5.7682 -3.73418,-0.55998 -9.98087,-0.64015 -13.88151,-0.17816 -8.54165,1.01164 -25.96843,9.51231 -33.55883,16.3698 -5.49527,4.96463 -17.9451,4.04487 -21.39811,1.24878 -5.1809,-4.19524 -7.11984,-0.95827 -29.39979,4.92475 -30.56376,8.07037 -52.75817,11.27272 -57.79005,18.95233 -3.27697,5.00129 -1.69988,9.1405 8.25616,21.66914 19.769,24.87719 30.02692,26.95123 56.76444,11.47717 z m 215.74399,-78.25798 c -33.83956,13.21555 -71.93392,29.85713 -99.31808,10.13132 -19.52583,23.2356 36.49624,22.85456 54.42214,20.70185 30.98603,-3.72109 64.92833,-38.65652 44.89594,-30.83317 z m -100.1593,8.22819 c 1.32197,-1.59289 1.32497,-5.83783 0.0125,-18.02617 -2.67466,-24.84207 -4.48916,-42.40441 3.39654,-49.66347 6.30561,-5.80454 24.2015,-18.57595 42.26541,-22.17783 9.65674,-1.92553 22.20986,5.03788 23.42309,5.03788 1.21322,0 -3.37328,5.13246 -10.19221,11.40551 -6.81894,6.27301 -19.35849,18.16282 -27.86566,26.42177 l -15.46759,15.01627 0.34974,11.37423 c 0.42124,13.69642 2.09142,16.06326 12.29012,17.41618 6.45769,0.85664 10.406,-0.04 32.34726,-7.34673 38.88102,-12.9477 43.3703,-17.66016 46.91249,-49.24447 1.79445,-16.00063 0.0167,-33.69205 -3.65583,-36.37733 -3.72227,-2.72181 -7.41947,-2.39985 -14.8065,1.28942 -5.90706,2.95013 -6.58264,3.01515 -8.26342,0.79532 -6.42508,-8.48565 -49.01908,-6.65208 -68.03305,2.92868 -22.72511,11.4507 -29.38351,19.88089 -31.17139,39.46599 -0.78981,8.65152 -0.19724,13.3707 3.68041,29.31137 3.32376,13.66377 5.50531,19.76597 7.76788,21.7283 3.77773,3.27639 4.75179,3.36603 7.00998,0.64506 z m 178.69956,-50.21165 c 0.98955,-5.67145 0.82065,-13.39518 0.37008,-16.4184 -1.68342,-11.29572 -26.39721,-51.89908 -43.17162,-66.84989 -7.86036,-7.0058 -39.62203,-25.43956 -57.71883,-33.49867 -16.10301,-7.17121 -60.47137,-18.397883 -73.47437,-18.591453 -10.73242,-0.15975 -11.25085,-0.0133 -11.72066,3.306303 -0.95065,6.71728 10.72746,3.90319 35.39827,12.90309 76.16567,27.78519 86.52299,34.94236 113.28983,65.3688 16.15812,18.36728 25.96991,39.8597 29.47106,50.52993 3.9208,11.94914 2.28875,14.58043 6.34148,14.00139 2.57399,-0.36774 -0.29116,-2.11983 1.21478,-10.7511 z M 384.5298,227.14982 c 3.5252,-2.91311 1.76381,-6.35939 -6.69869,-13.10648 -4.68376,-3.73436 -17.20422,-14.83788 -27.82322,-24.6745 -23.14144,-21.43643 -28.5429,-23.12873 -26.31067,-8.24319 1.59517,10.63741 8.81674,19.14614 29.66997,34.95825 17.67588,13.40285 19.37121,14.35 24.16537,13.50083 2.83572,-0.50232 5.98448,-1.59799 6.99724,-2.43491 z m 19.22401,-29.4445 c 2.76511,-2.76513 2.05845,-8.71001 -1.84738,-15.54126 -1.96877,-3.44337 -3.37436,-6.26068 -3.12353,-6.26068 0.25083,0 4.87571,2.96368 10.27748,6.58597 11.09192,7.43793 19.5721,10.26357 26.41477,8.80148 12.10449,-2.58636 11.36489,-7.93826 -2.02913,-14.68338 -25.78339,-12.98431 -46.19581,-30.56108 -51.36452,-44.22908 -2.11729,-5.59889 -3.5707,-7.39759 -6.24525,-7.72894 -5.04518,-0.62506 -9.25332,6.89957 -8.05379,14.40104 0.72974,4.56334 0.45999,5.55014 -1.4716,5.38427 -1.3008,-0.11167 -3.06438,0.87464 -3.91911,2.19189 -2.95234,4.55 4.36266,18.36534 18.35407,34.66399 15.59051,18.16143 18.90009,20.52259 23.00799,16.4147 z m 80.08002,-38.67626 c 2.78214,-6.10612 -1.10773,-12.05332 -21.72235,-33.21122 -10.65693,-10.9378 -20.53314,-22.20705 -21.94712,-25.04277 -3.35201,-6.722423 -9.52735,-13.257933 -12.52726,-13.257933 -4.23698,0 -5.91143,3.3691 -5.91143,11.89424 0,15.547683 5.88364,26.254353 25.13613,45.741133 12.28886,12.4384 20.76176,17.40812 29.76858,17.46058 4.48592,0.0258 5.873,-0.66399 7.20345,-3.58403 z" id="path24" sodipodi:nodetypes="ssscssssssssssssssssssssssssssssssssssssssssssscscsssssscssscsssssssscssssssssssssscsssssssssssssssssssssssssscssssssssssscsscssssssscssssscssscssscsscssssssssssssssssssssssssscsscsssssscsscssssssssccssssssssssssssssssssssssssssssssssssscsss"></path></svg></g></g></svg>